<svg version="1.1" id="Layer_1" xmlns="http://www.w3.org/2000/svg" x="0" y="0" viewBox="0 0 407 407" style="enable-background:new 0 0 407 407" xml:space="preserve"><style>.st0{fill:#328dcc}.st1{fill:#47bfee}.st2{fill:#4bbdec}</style><path class="st0" d="M223.9 80.3s-42.3 46.1-46.8 95.5c-4.3 46.5 33.5 44.3 40.7 72.3 12.1 47-15.1 94-15.1 94s76.6-51.2 69.3-105.6c-5.3-39.3-34.7-40.3-47.5-82.4-12.4-40.5-.6-73.8-.6-73.8z"/><path class="st1" d="M208.7 120s-14.6 33.2-15.7 68.5c-1.1 33.3 20.6 46.9 25.8 67 8.7 33.8-16.8 48.9-16.8 48.9s46.6-20 40.5-59.1c-4.4-28.2-5.1-38.1-22.4-64.4-14.2-21.4-11.4-60.9-11.4-60.9z"/><path class="st0" d="M292.1 122.4s-29.9 27.6-52 66.8c-20.8 36.9.5 49.4-5.5 75.2-10 43.2-32.4 79.6-32.4 79.6s66.2-20.2 82.3-67.8c11.6-34.3-7.7-45.7-.1-85.1 7.4-37.8 7.7-68.7 7.7-68.7z"/><path class="st1" d="M277 159.2s-10.6 13.8-24.6 38.9c-16.4 29.6 2.8 67.5-14.5 93.7-15.6 23.6-33.8 52.9-33.8 52.9s48.3-36.6 64-64.5c12.6-22.3-6.3-40.8-3.8-66.3 2.3-22.9 12.7-54.7 12.7-54.7z"/><path class="st0" d="M132 129.2s-19.4 59.5-3.1 106.3c15.4 44.1 29.9 27.4 48.1 50 30.5 37.8 21.5 61.1 21.5 61.1s55.6-46.4 37.3-93.8c-14.3-36.9-43.8-23.6-72.8-56.6-28-31.8-31-67-31-67z"/><path class="st2" d="M137.7 173.2s-5.9 37 7 69.9c12.2 31 37.4 34.9 50.2 51.3 21.3 27.6 3.9 51.6 3.9 51.6s44.1-44.2 23.1-77.6c-15.2-24.1-31.6-12.8-52.6-36.3-20.5-22.9-31.6-58.9-31.6-58.9z"/><path d="M149.1 116.2s42.9 32.2 63.1 72.4c20 39.8 24.7 55.3 15.7 82.2-14.1 42-27 71.1-27 71.1s-44.7-27-51.6-76.8c-5-35.9 16.2-43.5 16-83.6-.2-38.5-16.2-65.3-16.2-65.3z" style="fill:#47bfee;stroke:#328dcc;stroke-width:6px;stroke-miterlimit:10"/><path class="st0" d="M180.8 171.2s25.7 34.4 30.8 63c5.1 28.1 8.7 57.8 5.5 74.2-5.5 27.9-19.6 44.7-19.6 44.7s-27.1-18.8-30.6-50.9c-3.3-30.7 17.8-44.1 21.2-69.6 4.2-31.8-7.3-61.4-7.3-61.4zM279.3 14.6C255.9 5.2 230.3 0 203.5 0c-16.8 0-33 2-48.6 5.9l18.5 56.7c9.6-2 19.5-3.1 29.6-3.1 18 0 35.1 3.4 51 9.5l25.3-54.4z"/><path d="M301.6 25.2c-5.8-3.2-11.7-6.1-17.8-8.7l-25.3 54.2c4.4 1.9 8.7 4 12.8 6.3l30.3-51.8z" style="fill:#3fbbab"/><path d="M137.1 75.7c8.5-4.5 17.5-8.1 26.9-10.8L145.5 8.4c-14.9 4.4-29 10.5-42.3 18l33.9 49.3z" style="fill:#84c441"/><path class="st1" d="M91.9 113.3c11-13.9 24.5-25.7 39.9-34.7L98.1 29.4C77.7 41.8 59.7 57.6 44.9 76l47 37.3z"/><path d="M67.6 159.3c4.7-15.1 11.8-29.2 20.9-41.7l-47-37.3c-15.3 20.1-27 43.2-34 68.2l60.1 10.8z" style="fill:#2f8fce"/><path d="M63.2 178.5c.7-4.6 1.7-9.1 2.9-13.5L6 154.1c-1.5 5.9-2.7 11.9-3.6 18l60.8 6.4z" style="fill:#46bbec"/><path d="M79.4 270.2c-11.5-20.5-18-44.1-18-69.2 0-5.7.4-11.3 1-16.8l-60.8-6.3c-1 8.4-1.6 16.9-1.6 25.6 0 35.2 8.9 68.3 24.7 97.2l54.7-30.5z" style="fill:#85c141"/><path d="M101.2 299.5c-7.1-7.4-13.5-15.5-18.9-24.3l-54.8 30.5c7.9 13.5 17.2 26 27.9 37.3l45.8-43.5z" style="fill:#318fcc"/><path d="M146.7 331c-15.9-6.9-30.3-16.6-42.5-28.5l-45.9 43.6c18 18.3 39.4 33.2 63.3 43.7l25.1-58.8z" style="fill:#42bbaf"/><path d="M163.7 337.1c-4.7-1.4-9.3-2.9-13.8-4.8l-25.1 58.9c7.3 3 14.7 5.7 22.4 7.9l16.5-62z" style="fill:#2e8ecb"/><path d="M236.9 338.5c-10.9 2.7-22.2 4.1-33.9 4.1-12.4 0-24.4-1.6-35.9-4.6l-16.5 62c16.9 4.5 34.6 7 52.9 7 17.8 0 35-2.3 51.5-6.6l-18.1-61.9z" style="fill:#4abeed"/><path d="M272.8 324.2c-9.8 5.6-20.3 10-31.4 13.1l18 61.9c16.7-4.8 32.4-11.6 47.1-20.2l-33.7-54.8z" style="fill:#308dcc"/><path d="M304.1 300.1c-4 4.1-8.2 7.9-12.7 11.5l39.3 50.7c6-4.8 11.8-10 17.2-15.5l-43.8-46.7z" style="fill:#308ccc"/><path d="M405.5 178.9c-1.2-10.3-3.3-20.4-6-30.1L339.2 162c2.1 7.4 3.6 15 4.5 22.8l61.8-5.9z" style="fill:#87c440"/><path d="M340.1 236.4c-4.6 17.9-12.6 34.4-23.3 48.9l49.3 40.6c16.5-21.9 28.7-47.2 35.3-74.7l-61.3-14.8z" style="fill:#43bbad"/><path d="m342.8 223.5 62.7 4.7c1-8.1 1.5-16.3 1.5-24.7 0-2.8-.1-5.5-.2-8.3l-62.3 1.3c0 1.5.1 3 .1 4.5 0 7.7-.6 15.2-1.8 22.5z" style="fill:#2f8fcc"/><path d="m302.9 100.7 43-42.5c-11.4-11.2-24.1-21-37.9-29.3l-30.3 51.9c9.2 5.6 17.6 12.3 25.2 19.9z" style="fill:#2e8aca"/><path class="st2" d="m362.8 77-47.5 37.9c4 5.3 7.7 10.8 11 16.6l53.4-29.7c-5-8.7-10.6-17-16.9-24.8z"/></svg>